<svg xmlns="http://www.w3.org/2000/svg" xmlns:xlink="http://www.w3.org/1999/xlink" width="1080" zoomAndPan="magnify" viewBox="0 0 810 809.999993" height="1080" preserveAspectRatio="xMidYMid meet" version="1.2"><defs><clipPath id="c15c98e5c4"><path d="M 243 243 L 567 243 L 567 567 L 243 567 Z M 243 243 "/></clipPath><clipPath id="92f1ae9e69"><path d="M 288.742188 243 L 521.257812 243 C 522.757812 243 524.25 243.074219 525.742188 243.21875 C 527.234375 243.367188 528.714844 243.585938 530.183594 243.878906 C 531.652344 244.171875 533.101562 244.535156 534.535156 244.96875 C 535.96875 245.40625 537.378906 245.910156 538.761719 246.480469 C 540.148438 247.054688 541.5 247.695312 542.820312 248.402344 C 544.140625 249.105469 545.425781 249.875 546.671875 250.707031 C 547.917969 251.542969 549.117188 252.433594 550.277344 253.382812 C 551.433594 254.332031 552.542969 255.339844 553.601562 256.398438 C 554.660156 257.457031 555.667969 258.566406 556.617188 259.722656 C 557.566406 260.882812 558.457031 262.082031 559.292969 263.328125 C 560.125 264.574219 560.894531 265.859375 561.597656 267.179688 C 562.304688 268.5 562.945312 269.851562 563.519531 271.238281 C 564.089844 272.621094 564.59375 274.03125 565.03125 275.464844 C 565.464844 276.898438 565.828125 278.347656 566.121094 279.816406 C 566.414062 281.285156 566.632812 282.765625 566.78125 284.257812 C 566.925781 285.75 567 287.242188 567 288.742188 L 567 521.257812 C 567 522.757812 566.925781 524.25 566.78125 525.742188 C 566.632812 527.234375 566.414062 528.714844 566.121094 530.183594 C 565.828125 531.652344 565.464844 533.101562 565.03125 534.535156 C 564.59375 535.96875 564.089844 537.378906 563.519531 538.761719 C 562.945312 540.148438 562.304688 541.5 561.597656 542.820312 C 560.894531 544.140625 560.125 545.425781 559.292969 546.671875 C 558.457031 547.917969 557.566406 549.117188 556.617188 550.277344 C 555.667969 551.433594 554.660156 552.542969 553.601562 553.601562 C 552.542969 554.660156 551.433594 555.667969 550.277344 556.617188 C 549.117188 557.566406 547.917969 558.457031 546.671875 559.292969 C 545.425781 560.125 544.140625 560.894531 542.820312 561.597656 C 541.5 562.304688 540.148438 562.945312 538.761719 563.519531 C 537.378906 564.089844 535.96875 564.59375 534.535156 565.03125 C 533.101562 565.464844 531.652344 565.828125 530.183594 566.121094 C 528.714844 566.414062 527.234375 566.632812 525.742188 566.78125 C 524.25 566.925781 522.757812 567 521.257812 567 L 288.742188 567 C 287.242188 567 285.75 566.925781 284.257812 566.78125 C 282.765625 566.632812 281.285156 566.414062 279.816406 566.121094 C 278.347656 565.828125 276.898438 565.464844 275.464844 565.03125 C 274.03125 564.59375 272.621094 564.089844 271.238281 563.519531 C 269.851562 562.945312 268.5 562.304688 267.179688 561.597656 C 265.859375 560.894531 264.574219 560.125 263.328125 559.292969 C 262.082031 558.457031 260.882812 557.566406 259.722656 556.617188 C 258.566406 555.667969 257.457031 554.660156 256.398438 553.601562 C 255.339844 552.542969 254.332031 551.433594 253.382812 550.277344 C 252.433594 549.117188 251.542969 547.917969 250.707031 546.671875 C 249.875 545.425781 249.105469 544.140625 248.402344 542.820312 C 247.695312 541.5 247.054688 540.148438 246.480469 538.761719 C 245.910156 537.378906 245.40625 535.96875 244.96875 534.535156 C 244.535156 533.101562 244.171875 531.652344 243.878906 530.183594 C 243.585938 528.714844 243.367188 527.234375 243.21875 525.742188 C 243.074219 524.25 243 522.757812 243 521.257812 L 243 288.742188 C 243 287.242188 243.074219 285.75 243.21875 284.257812 C 243.367188 282.765625 243.585938 281.285156 243.878906 279.816406 C 244.171875 278.347656 244.535156 276.898438 244.96875 275.464844 C 245.40625 274.03125 245.910156 272.621094 246.480469 271.238281 C 247.054688 269.851562 247.695312 268.5 248.402344 267.179688 C 249.105469 265.859375 249.875 264.574219 250.707031 263.328125 C 251.542969 262.082031 252.433594 260.882812 253.382812 259.722656 C 254.332031 258.566406 255.339844 257.457031 256.398438 256.398438 C 257.457031 255.339844 258.566406 254.332031 259.722656 253.382812 C 260.882812 252.433594 262.082031 251.542969 263.328125 250.707031 C 264.574219 249.875 265.859375 249.105469 267.179688 248.402344 C 268.5 247.695312 269.851562 247.054688 271.238281 246.480469 C 272.621094 245.910156 274.03125 245.40625 275.464844 244.96875 C 276.898438 244.535156 278.347656 244.171875 279.816406 243.878906 C 281.285156 243.585938 282.765625 243.367188 284.257812 243.21875 C 285.75 243.074219 287.242188 243 288.742188 243 Z M 288.742188 243 "/></clipPath></defs><g id="ddccfd33c7"><rect x="0" width="810" y="0" height="809.999993" style="fill:#ffffff;fill-opacity:1;stroke:none;"/><rect x="0" width="810" y="0" height="809.999993" style="fill:#ffffff;fill-opacity:1;stroke:none;"/><g clip-rule="nonzero" clip-path="url(#c15c98e5c4)"><g clip-rule="nonzero" clip-path="url(#92f1ae9e69)"><path style=" stroke:none;fill-rule:nonzero;fill:#004aad;fill-opacity:1;" d="M 243 243 L 243 567 L 567 567 L 567 243 Z M 243 243 "/></g></g><path style=" stroke:none;fill-rule:nonzero;fill:#ffffff;fill-opacity:1;" d="M 417.453125 504.476562 L 377.957031 504.476562 L 377.957031 402.902344 L 353.542969 402.902344 L 353.542969 369.398438 L 377.957031 369.398438 L 377.957031 358.628906 C 377.957031 340.636719 382.09375 327.03125 390.367188 317.816406 C 398.730469 308.597656 412.160156 303.988281 430.664062 303.988281 C 434.042969 303.988281 438.136719 304.210938 442.9375 304.652344 C 447.832031 305.007812 451.789062 305.40625 454.8125 305.847656 L 454.8125 338.953125 C 453.390625 338.777344 451.253906 338.597656 448.410156 338.421875 C 445.652344 338.15625 443.515625 338.023438 442.003906 338.023438 C 433.289062 338.023438 427.015625 339.796875 423.191406 343.339844 C 419.367188 346.886719 417.453125 353.003906 417.453125 361.6875 L 417.453125 369.398438 L 454.011719 369.398438 L 449.609375 402.902344 L 417.453125 402.902344 Z M 417.453125 504.476562 "/></g></svg>