<svg xmlns="http://www.w3.org/2000/svg" xmlns:xlink="http://www.w3.org/1999/xlink" width="1080" zoomAndPan="magnify" viewBox="0 0 810 809.999993" height="1080" preserveAspectRatio="xMidYMid meet" version="1.2"><g id="22448e00a7"><rect x="0" width="810" y="0" height="809.999993" style="fill:#ffffff;fill-opacity:1;stroke:none;"/><rect x="0" width="810" y="0" height="809.999993" style="fill:#ffffff;fill-opacity:1;stroke:none;"/><path style=" stroke:none;fill-rule:nonzero;fill:#004aad;fill-opacity:1;" d="M 315.886719 243 L 493.925781 243 C 514.042969 243 532.265625 251.160156 545.550781 264.449219 C 558.648438 277.542969 567 295.957031 567 315.886719 L 567 493.925781 C 567 514.042969 558.648438 532.265625 545.550781 545.550781 C 532.265625 558.648438 514.042969 567 493.925781 567 L 315.886719 567 C 295.957031 567 277.542969 558.648438 264.449219 545.550781 C 251.160156 532.265625 243 514.042969 243 493.925781 L 243 315.886719 C 243 295.957031 251.160156 277.542969 264.449219 264.449219 C 277.542969 251.160156 295.957031 243 315.886719 243 Z M 493.925781 271.851562 L 315.886719 271.851562 C 303.738281 271.851562 292.730469 276.785156 284.757812 284.757812 C 276.785156 292.730469 271.851562 303.738281 271.851562 315.886719 L 271.851562 493.925781 C 271.851562 506.070312 276.785156 517.082031 284.757812 525.050781 C 292.730469 533.214844 303.738281 538.148438 315.886719 538.148438 L 493.925781 538.148438 C 506.070312 538.148438 517.082031 533.214844 525.050781 525.050781 C 533.214844 517.082031 538.148438 506.070312 538.148438 493.925781 L 538.148438 315.886719 C 538.148438 303.738281 533.214844 292.730469 525.050781 284.757812 C 517.082031 276.785156 506.070312 271.851562 493.925781 271.851562 Z M 493.925781 271.851562 "/><path style=" stroke:none;fill-rule:nonzero;fill:#004aad;fill-opacity:1;" d="M 495.824219 299.5625 C 499.808594 299.5625 503.605469 301.082031 506.070312 303.738281 C 508.730469 306.394531 510.4375 310 510.4375 313.988281 C 510.4375 317.972656 508.730469 321.769531 506.070312 324.238281 C 503.605469 326.894531 499.808594 328.601562 495.824219 328.601562 C 491.835938 328.601562 488.230469 326.894531 485.574219 324.238281 C 482.914062 321.769531 481.398438 317.972656 481.398438 313.988281 C 481.398438 310 482.914062 306.394531 485.574219 303.738281 C 488.230469 301.082031 491.835938 299.5625 495.824219 299.5625 Z M 495.824219 299.5625 "/><path style=" stroke:none;fill-rule:nonzero;fill:#004aad;fill-opacity:1;" d="M 404.90625 326.324219 C 426.734375 326.324219 446.28125 335.246094 460.519531 349.292969 C 474.753906 363.527344 483.675781 383.265625 483.675781 404.90625 C 483.675781 426.734375 474.753906 446.28125 460.519531 460.519531 C 446.28125 474.753906 426.734375 483.675781 404.90625 483.675781 C 383.265625 483.675781 363.527344 474.753906 349.292969 460.519531 C 335.246094 446.28125 326.324219 426.734375 326.324219 404.90625 C 326.324219 383.265625 335.246094 363.527344 349.292969 349.292969 C 363.527344 335.246094 383.265625 326.324219 404.90625 326.324219 Z M 440.019531 369.980469 C 431.097656 361.058594 418.570312 355.367188 404.90625 355.367188 C 391.238281 355.367188 378.902344 361.058594 369.980469 369.980469 C 361.058594 378.902344 355.367188 391.238281 355.367188 404.90625 C 355.367188 418.570312 361.058594 431.097656 369.980469 440.019531 C 378.902344 448.941406 391.238281 454.445312 404.90625 454.445312 C 418.570312 454.445312 431.097656 448.941406 440.019531 440.019531 C 448.941406 431.097656 454.445312 418.570312 454.445312 404.90625 C 454.445312 391.238281 448.941406 378.902344 440.019531 369.980469 Z M 440.019531 369.980469 "/></g></svg>