<svg xmlns="http://www.w3.org/2000/svg" xmlns:xlink="http://www.w3.org/1999/xlink" width="1080" zoomAndPan="magnify" viewBox="0 0 810 809.999993" height="1080" preserveAspectRatio="xMidYMid meet" version="1.2"><g id="725857d6ad"><rect x="0" width="810" y="0" height="809.999993" style="fill:#ffffff;fill-opacity:1;stroke:none;"/><rect x="0" width="810" y="0" height="809.999993" style="fill:#ffffff;fill-opacity:1;stroke:none;"/><path style=" stroke:none;fill-rule:nonzero;fill:#004aad;fill-opacity:1;" d="M 318.535156 360.507812 L 342.496094 360.507812 C 342.800781 360.507812 343.097656 360.535156 343.394531 360.59375 C 343.691406 360.652344 343.976562 360.742188 344.257812 360.855469 C 344.535156 360.972656 344.800781 361.113281 345.050781 361.28125 C 345.300781 361.449219 345.535156 361.640625 345.746094 361.851562 C 345.960938 362.066406 346.152344 362.296875 346.320312 362.546875 C 346.488281 362.800781 346.628906 363.066406 346.742188 363.34375 C 346.859375 363.621094 346.945312 363.910156 347.003906 364.207031 C 347.0625 364.5 347.09375 364.800781 347.09375 365.101562 L 347.09375 496.914062 C 347.09375 497.214844 347.0625 497.515625 347.003906 497.8125 C 346.945312 498.109375 346.859375 498.394531 346.742188 498.671875 C 346.628906 498.953125 346.488281 499.21875 346.320312 499.46875 C 346.152344 499.71875 345.960938 499.953125 345.746094 500.164062 C 345.535156 500.378906 345.300781 500.570312 345.050781 500.734375 C 344.800781 500.902344 344.535156 501.046875 344.257812 501.160156 C 343.976562 501.277344 343.691406 501.363281 343.394531 501.421875 C 343.097656 501.480469 342.800781 501.511719 342.496094 501.511719 L 318.535156 501.511719 C 318.230469 501.511719 317.933594 501.480469 317.636719 501.421875 C 317.339844 501.363281 317.054688 501.277344 316.773438 501.160156 C 316.496094 501.046875 316.230469 500.902344 315.980469 500.734375 C 315.730469 500.570312 315.496094 500.378906 315.285156 500.164062 C 315.070312 499.953125 314.878906 499.71875 314.710938 499.46875 C 314.542969 499.21875 314.402344 498.953125 314.289062 498.671875 C 314.171875 498.394531 314.085938 498.109375 314.027344 497.8125 C 313.96875 497.515625 313.9375 497.214844 313.9375 496.914062 L 313.9375 365.101562 C 313.9375 364.800781 313.96875 364.5 314.027344 364.207031 C 314.085938 363.910156 314.171875 363.621094 314.289062 363.34375 C 314.402344 363.066406 314.542969 362.800781 314.710938 362.546875 C 314.878906 362.296875 315.070312 362.066406 315.285156 361.851562 C 315.496094 361.640625 315.730469 361.449219 315.980469 361.28125 C 316.230469 361.113281 316.496094 360.972656 316.773438 360.855469 C 317.054688 360.742188 317.339844 360.652344 317.636719 360.59375 C 317.933594 360.535156 318.230469 360.507812 318.535156 360.507812 Z M 318.535156 360.507812 "/><path style=" stroke:none;fill-rule:nonzero;fill:#004aad;fill-opacity:1;" d="M 349.820312 327.988281 C 349.78125 316.6875 341.675781 308.488281 330.515625 308.488281 C 319.359375 308.488281 310.941406 316.902344 310.941406 328.066406 C 310.941406 333.257812 312.835938 338.089844 316.273438 341.667969 C 319.808594 345.34375 324.671875 347.367188 329.972656 347.367188 C 335.84375 347.367188 341.085938 345.300781 344.730469 341.519531 C 348.148438 337.984375 349.953125 333.210938 349.820312 328.066406 C 349.820312 328.039062 349.820312 328.019531 349.820312 327.988281 Z M 349.820312 327.988281 "/><path style=" stroke:none;fill-rule:nonzero;fill:#004aad;fill-opacity:1;" d="M 481.085938 369.777344 C 469.152344 359.105469 455.167969 357.511719 447.890625 357.511719 C 437.023438 357.511719 426.667969 360.414062 417.9375 365.910156 C 414.121094 368.3125 410.675781 371.160156 407.597656 374.457031 L 406.996094 364.804688 C 406.957031 364.222656 406.816406 363.664062 406.566406 363.136719 C 406.316406 362.605469 405.976562 362.140625 405.550781 361.738281 C 405.125 361.339844 404.636719 361.03125 404.09375 360.816406 C 403.550781 360.601562 402.984375 360.496094 402.398438 360.496094 L 381.167969 360.496094 C 380.851562 360.496094 380.539062 360.53125 380.230469 360.59375 C 379.921875 360.660156 379.621094 360.753906 379.332031 360.882812 C 379.042969 361.007812 378.765625 361.164062 378.507812 361.34375 C 378.25 361.527344 378.015625 361.734375 377.800781 361.96875 C 377.585938 362.199219 377.394531 362.449219 377.234375 362.722656 C 377.070312 362.992188 376.9375 363.277344 376.832031 363.574219 C 376.726562 363.875 376.652344 364.179688 376.613281 364.496094 C 376.570312 364.808594 376.5625 365.121094 376.585938 365.4375 C 377.339844 375.496094 377.664062 386.066406 377.664062 400.769531 L 377.664062 496.914062 C 377.664062 497.214844 377.691406 497.515625 377.75 497.8125 C 377.808594 498.109375 377.898438 498.394531 378.011719 498.671875 C 378.128906 498.953125 378.269531 499.21875 378.4375 499.46875 C 378.605469 499.71875 378.792969 499.953125 379.007812 500.164062 C 379.222656 500.378906 379.453125 500.570312 379.703125 500.734375 C 379.957031 500.902344 380.21875 501.046875 380.5 501.160156 C 380.777344 501.277344 381.066406 501.363281 381.363281 501.421875 C 381.65625 501.480469 381.957031 501.511719 382.257812 501.511719 L 406.226562 501.511719 C 406.527344 501.511719 406.824219 501.480469 407.121094 501.421875 C 407.417969 501.363281 407.703125 501.277344 407.984375 501.160156 C 408.261719 501.046875 408.527344 500.902344 408.777344 500.734375 C 409.027344 500.570312 409.261719 500.378906 409.472656 500.164062 C 409.6875 499.953125 409.878906 499.71875 410.046875 499.46875 C 410.214844 499.21875 410.355469 498.953125 410.46875 498.671875 C 410.585938 498.394531 410.671875 498.109375 410.730469 497.8125 C 410.792969 497.515625 410.820312 497.214844 410.820312 496.914062 L 410.820312 417.664062 C 410.820312 413.9375 411.316406 410.441406 412.179688 408.066406 C 412.203125 407.992188 412.230469 407.917969 412.253906 407.835938 C 415.492188 397.269531 425.328125 386.578125 439.996094 386.578125 C 449.074219 386.578125 455.589844 389.683594 459.917969 396.066406 C 463.824219 401.839844 465.894531 410.4375 465.894531 420.925781 L 465.894531 496.914062 C 465.894531 497.214844 465.921875 497.515625 465.980469 497.8125 C 466.039062 498.109375 466.128906 498.394531 466.242188 498.671875 C 466.359375 498.953125 466.5 499.21875 466.667969 499.46875 C 466.835938 499.71875 467.027344 499.953125 467.238281 500.164062 C 467.453125 500.378906 467.683594 500.570312 467.9375 500.734375 C 468.1875 500.902344 468.453125 501.046875 468.730469 501.160156 C 469.007812 501.277344 469.296875 501.363281 469.59375 501.421875 C 469.890625 501.480469 470.1875 501.511719 470.488281 501.511719 L 494.457031 501.511719 C 494.757812 501.511719 495.058594 501.480469 495.351562 501.421875 C 495.648438 501.363281 495.9375 501.277344 496.214844 501.160156 C 496.492188 501.046875 496.757812 500.902344 497.007812 500.734375 C 497.261719 500.570312 497.492188 500.378906 497.707031 500.164062 C 497.917969 499.953125 498.109375 499.71875 498.277344 499.46875 C 498.445312 499.21875 498.585938 498.953125 498.703125 498.671875 C 498.816406 498.394531 498.90625 498.109375 498.964844 497.8125 C 499.023438 497.515625 499.050781 497.214844 499.050781 496.914062 L 499.050781 418.207031 C 499.050781 406.996094 497.355469 397.054688 494.015625 388.667969 C 491.015625 381.125 486.660156 374.769531 481.085938 369.777344 Z M 481.085938 369.777344 "/><path style=" stroke:none;fill-rule:nonzero;fill:#004aad;fill-opacity:1;" d="M 524.820312 243 L 285.179688 243 C 261.921875 243 243 261.921875 243 285.179688 L 243 524.820312 C 243 548.078125 261.921875 567 285.179688 567 L 524.820312 567 C 548.078125 567 567 548.078125 567 524.820312 L 567 285.179688 C 567 261.921875 548.078125 243 524.820312 243 Z M 537.382812 287.222656 L 537.382812 522.777344 C 537.382812 523.734375 537.289062 524.683594 537.097656 525.625 C 536.910156 526.566406 536.632812 527.480469 536.265625 528.363281 C 535.898438 529.25 535.449219 530.089844 534.917969 530.886719 C 534.382812 531.683594 533.777344 532.421875 533.101562 533.101562 C 532.421875 533.777344 531.683594 534.382812 530.886719 534.917969 C 530.089844 535.449219 529.25 535.898438 528.363281 536.265625 C 527.480469 536.632812 526.566406 536.910156 525.625 537.097656 C 524.683594 537.289062 523.734375 537.382812 522.777344 537.382812 L 287.222656 537.382812 C 286.265625 537.382812 285.3125 537.289062 284.375 537.097656 C 283.433594 536.910156 282.519531 536.632812 281.636719 536.265625 C 280.75 535.898438 279.910156 535.449219 279.113281 534.917969 C 278.316406 534.382812 277.578125 533.777344 276.898438 533.101562 C 276.222656 532.421875 275.617188 531.683594 275.082031 530.886719 C 274.550781 530.089844 274.101562 529.25 273.734375 528.363281 C 273.367188 527.480469 273.089844 526.566406 272.902344 525.625 C 272.710938 524.683594 272.617188 523.734375 272.617188 522.777344 L 272.617188 287.222656 C 272.617188 286.265625 272.710938 285.316406 272.902344 284.375 C 273.089844 283.433594 273.367188 282.519531 273.734375 281.636719 C 274.101562 280.75 274.550781 279.910156 275.082031 279.113281 C 275.617188 278.316406 276.222656 277.578125 276.898438 276.898438 C 277.578125 276.222656 278.316406 275.617188 279.113281 275.082031 C 279.910156 274.550781 280.75 274.101562 281.636719 273.734375 C 282.519531 273.367188 283.433594 273.089844 284.375 272.902344 C 285.3125 272.710938 286.265625 272.617188 287.222656 272.617188 L 522.777344 272.617188 C 523.734375 272.617188 524.683594 272.710938 525.625 272.902344 C 526.566406 273.089844 527.480469 273.367188 528.363281 273.734375 C 529.25 274.101562 530.089844 274.550781 530.886719 275.082031 C 531.683594 275.617188 532.421875 276.222656 533.101562 276.898438 C 533.777344 277.578125 534.382812 278.316406 534.917969 279.113281 C 535.449219 279.910156 535.898438 280.75 536.265625 281.636719 C 536.632812 282.519531 536.910156 283.433594 537.097656 284.375 C 537.289062 285.316406 537.382812 286.265625 537.382812 287.222656 Z M 537.382812 287.222656 "/></g></svg>