<svg xmlns="http://www.w3.org/2000/svg" xmlns:xlink="http://www.w3.org/1999/xlink" width="1080" zoomAndPan="magnify" viewBox="0 0 810 809.999993" height="1080" preserveAspectRatio="xMidYMid meet" version="1.2"><defs><clipPath id="8a1e79554f"><path d="M 109 119 L 684 119 L 684 712.015625 L 109 712.015625 Z M 109 119 "/></clipPath></defs><g id="2a472b6532"><g clip-rule="nonzero" clip-path="url(#8a1e79554f)"><path style=" stroke:none;fill-rule:nonzero;fill:#004aad;fill-opacity:1;" d="M 656.980469 646.265625 L 657.109375 646.265625 Z M 207.160156 146.914062 C 201.472656 146.914062 196.089844 149.492188 190.246094 154.609375 C 189.605469 155.21875 181.242188 163.152344 175.800781 168.332031 L 171.050781 172.820312 C 143.304688 198.761719 130.722656 245.457031 139.003906 291.804688 C 141.664062 306.773438 145.964844 322.285156 151.785156 337.894531 C 181.113281 416.660156 236.785156 485.136719 278.335938 528.730469 C 319.695312 572.609375 385.109375 631.867188 462.175781 665.367188 C 477.464844 672.003906 492.714844 677.136719 507.515625 680.605469 C 553.355469 691.34375 600.664062 681.28125 628.03125 654.972656 L 632.59375 650.636719 C 637.890625 645.636719 646.160156 637.808594 647.359375 636.65625 C 664.402344 619.125 655.886719 604.550781 621.703125 569.78125 L 613.148438 561.003906 C 591.496094 538.53125 555.160156 500.898438 524.441406 504.570312 C 516.089844 505.554688 507.371094 511.648438 498.144531 518.085938 C 488.984375 524.476562 479.519531 531.082031 468.164062 534.679688 C 437.671875 544.351562 406.753906 537.996094 381.058594 516.828125 C 365.699219 504.164062 350.070312 489.351562 335.875 474.03125 C 321.511719 459.230469 307.566406 442.839844 295.761719 426.839844 C 276.007812 400.0625 271.328125 368.847656 282.601562 338.914062 C 286.804688 327.761719 293.910156 318.664062 300.785156 309.859375 C 307.710938 300.988281 314.253906 292.613281 315.679688 284.320312 C 320.96875 253.769531 285.355469 215.558594 264.070312 192.71875 L 255.777344 183.714844 C 233.222656 159.042969 219.503906 146.914062 207.160156 146.914062 Z M 544.503906 712.011719 C 529.179688 712.011719 514.453125 710.148438 501.316406 707.070312 C 484.933594 703.246094 468.117188 697.589844 451.332031 690.296875 C 370.035156 654.972656 301.652344 593.109375 258.605469 547.4375 C 215.34375 502.0625 157.238281 430.460938 126.304688 347.382812 C 119.914062 330.242188 115.1875 313.152344 112.230469 296.582031 C 104.390625 252.667969 110.839844 191.875 152.484375 152.972656 L 157.082031 148.601562 C 162.878906 143.101562 171.894531 134.535156 172.261719 134.214844 C 213.917969 97.644531 251.195312 138.398438 275.839844 165.375 L 283.964844 174.1875 C 308.683594 200.710938 350.058594 245.113281 342.480469 288.953125 C 339.878906 303.957031 330.492188 315.988281 322.214844 326.597656 C 316.335938 334.117188 310.777344 341.230469 308.042969 348.5 C 300.015625 369.808594 303.339844 391.320312 317.640625 410.695312 C 328.734375 425.722656 341.859375 441.152344 355.605469 455.320312 C 369.203125 470.003906 383.921875 483.9375 398.355469 495.851562 C 416.945312 511.171875 438.242188 515.628906 459.953125 508.773438 C 467.355469 506.410156 474.742188 501.253906 482.570312 495.792969 C 493.617188 488.09375 506.113281 479.351562 521.246094 477.570312 C 565.566406 472.34375 607.566406 516.03125 632.722656 542.140625 L 641.097656 550.714844 C 666.707031 576.777344 705.417969 616.164062 666.707031 655.769531 C 666.101562 656.351562 657.015625 664.972656 651.277344 670.390625 L 646.859375 674.582031 C 618.222656 702.117188 579.84375 712.011719 544.503906 712.011719 "/></g></g></svg>