<svg xmlns="http://www.w3.org/2000/svg" xmlns:xlink="http://www.w3.org/1999/xlink" width="1080" zoomAndPan="magnify" viewBox="0 0 810 809.999993" height="1080" preserveAspectRatio="xMidYMid meet" version="1.2"><defs><clipPath id="89e0426307"><path d="M 91 189.214844 L 718 189.214844 L 718 398 L 91 398 Z M 91 189.214844 "/></clipPath></defs><g id="de57394ff9"><g clip-rule="nonzero" clip-path="url(#89e0426307)"><path style=" stroke:none;fill-rule:nonzero;fill:#004aad;fill-opacity:1;" d="M 688.589844 255.378906 C 640.292969 225.285156 562.101562 193.769531 483.121094 191.152344 C 426.125 189.261719 383.339844 189.261719 326.351562 191.152344 C 247.367188 193.769531 169.179688 225.285156 120.875 255.378906 C 72.578125 285.464844 100.09375 330.203125 95.226562 343.128906 C 91.109375 354.050781 107.339844 403.261719 133.351562 396.660156 C 159.359375 390.054688 246.574219 351.285156 261.6875 338.539062 C 276.804688 325.789062 259.320312 305.878906 247.21875 292.296875 C 235.121094 278.722656 241.140625 265.800781 241.140625 265.800781 C 243.425781 252.46875 271.320312 256.164062 309.714844 260.78125 C 342.910156 264.761719 466.550781 264.761719 499.757812 260.78125 C 538.144531 256.164062 566.039062 252.46875 568.324219 265.800781 C 568.324219 265.800781 574.347656 278.722656 562.246094 292.296875 C 550.148438 305.878906 532.664062 325.789062 547.777344 338.539062 C 562.898438 351.285156 650.113281 390.054688 676.117188 396.660156 C 702.132812 403.261719 718.351562 354.050781 714.238281 343.128906 C 709.378906 330.203125 736.890625 285.464844 688.589844 255.378906 "/></g><path style=" stroke:none;fill-rule:nonzero;fill:#004aad;fill-opacity:1;" d="M 477.867188 437.671875 C 471.929688 437.671875 467.117188 434.023438 467.117188 429.523438 C 467.117188 425.015625 471.929688 421.367188 477.867188 421.367188 C 483.808594 421.367188 488.625 425.015625 488.625 429.523438 C 488.625 434.023438 483.808594 437.671875 477.867188 437.671875 Z M 454.34375 461.949219 C 448.101562 461.949219 443.042969 458.105469 443.042969 453.378906 C 443.042969 448.644531 448.101562 444.804688 454.34375 444.804688 C 460.585938 444.804688 465.648438 448.644531 465.648438 453.378906 C 465.648438 458.105469 460.585938 461.949219 454.34375 461.949219 Z M 475.699219 393.761719 C 481.335938 393.761719 485.910156 397.222656 485.910156 401.5 C 485.910156 405.765625 481.335938 409.234375 475.699219 409.234375 C 470.070312 409.234375 465.5 405.765625 465.5 401.5 C 465.5 397.222656 470.070312 393.761719 475.699219 393.761719 Z M 404.734375 425 C 391.484375 425 380.753906 417.621094 380.753906 408.523438 C 380.753906 399.425781 391.484375 392.046875 404.734375 392.046875 C 417.984375 392.046875 428.71875 399.425781 428.71875 408.523438 C 428.71875 417.621094 417.984375 425 404.734375 425 Z M 416.203125 471.382812 C 409.765625 471.382812 404.535156 467.421875 404.535156 462.539062 C 404.535156 457.65625 409.765625 453.691406 416.203125 453.691406 C 422.648438 453.691406 427.871094 457.65625 427.871094 462.539062 C 427.871094 467.421875 422.648438 471.382812 416.203125 471.382812 Z M 376.15625 468.675781 C 369.914062 468.675781 364.859375 464.835938 364.859375 460.109375 C 364.859375 455.375 369.914062 451.539062 376.15625 451.539062 C 382.398438 451.539062 387.457031 455.375 387.457031 460.109375 C 387.457031 464.835938 382.398438 468.675781 376.15625 468.675781 Z M 361.386719 374.351562 C 361.386719 370.449219 365.558594 367.28125 370.714844 367.28125 C 375.867188 367.28125 380.046875 370.449219 380.046875 374.351562 C 380.046875 378.257812 375.867188 381.425781 370.714844 381.425781 C 365.558594 381.425781 361.386719 378.257812 361.386719 374.351562 Z M 344.648438 451.234375 C 338.710938 451.234375 333.890625 447.582031 333.890625 443.082031 C 333.890625 438.578125 338.710938 434.925781 344.648438 434.925781 C 350.585938 434.925781 355.40625 438.578125 355.40625 443.082031 C 355.40625 447.582031 350.585938 451.234375 344.648438 451.234375 Z M 321.367188 415.738281 C 321.367188 411.464844 325.9375 408 331.566406 408 C 337.207031 408 341.777344 411.464844 341.777344 415.738281 C 341.777344 420.011719 337.207031 423.472656 331.566406 423.472656 C 325.9375 423.472656 321.367188 420.011719 321.367188 415.738281 Z M 344.648438 383.054688 C 350.035156 383.054688 354.398438 386.359375 354.398438 390.445312 C 354.398438 394.523438 350.035156 397.828125 344.648438 397.828125 C 339.265625 397.828125 334.90625 394.523438 334.90625 390.445312 C 334.90625 386.359375 339.265625 383.054688 344.648438 383.054688 Z M 404.734375 361.273438 C 409.773438 361.273438 413.851562 364.367188 413.851562 368.195312 C 413.851562 372.015625 409.773438 375.105469 404.734375 375.105469 C 399.695312 375.105469 395.613281 372.015625 395.613281 368.195312 C 395.613281 364.367188 399.695312 361.273438 404.734375 361.273438 Z M 469.445312 366.035156 L 441.71875 390.722656 C 441.71875 390.722656 435.746094 393.601562 431.488281 389.480469 C 427.234375 385.359375 429.144531 380.40625 429.144531 380.40625 L 446.367188 355.957031 C 433.691406 351.976562 419.597656 349.742188 404.734375 349.742188 C 349.628906 349.742188 304.957031 380.246094 304.957031 417.871094 C 304.957031 455.5 349.628906 485.996094 404.734375 485.996094 C 459.835938 485.996094 504.511719 455.5 504.511719 417.871094 C 504.511719 397.109375 490.894531 378.53125 469.445312 366.035156 "/><path style=" stroke:none;fill-rule:nonzero;fill:#004aad;fill-opacity:1;" d="M 481.507812 593.1875 L 327.964844 593.1875 L 327.964844 561.121094 L 481.507812 561.121094 Z M 646.945312 534.480469 L 162.523438 534.480469 C 159.726562 595.667969 167.332031 618.203125 217.9375 619.257812 C 273.101562 620.417969 385.046875 619.464844 404.734375 619.285156 C 424.421875 619.464844 536.367188 620.417969 591.535156 619.257812 C 642.140625 618.203125 649.75 595.667969 646.945312 534.480469 "/><path style=" stroke:none;fill-rule:nonzero;fill:#004aad;fill-opacity:1;" d="M 404.734375 502.757812 C 340.558594 502.757812 288.535156 467.023438 288.535156 422.945312 C 288.535156 378.863281 340.558594 343.128906 404.734375 343.128906 C 468.910156 343.128906 520.933594 378.863281 520.933594 422.945312 C 520.933594 467.023438 468.910156 502.757812 404.734375 502.757812 Z M 644.320312 493.507812 C 637.191406 396.121094 534.261719 367.8125 533.71875 353.121094 C 533.183594 338.433594 524.777344 266.332031 524.777344 266.332031 L 477.558594 270.75 C 477.558594 270.75 473.089844 287.511719 464.976562 295.363281 C 452.566406 307.359375 356.894531 307.359375 344.488281 295.363281 C 336.375 287.511719 331.914062 270.75 331.914062 270.75 L 284.679688 266.332031 C 284.679688 266.332031 276.285156 338.433594 275.746094 353.121094 C 275.207031 367.8125 172.273438 396.121094 165.144531 493.507812 C 164.382812 503.976562 163.695312 513.636719 163.160156 522.605469 L 646.308594 522.605469 C 645.773438 513.636719 645.085938 503.976562 644.320312 493.507812 "/></g></svg>