<svg xmlns="http://www.w3.org/2000/svg" xmlns:xlink="http://www.w3.org/1999/xlink" width="1080" zoomAndPan="magnify" viewBox="0 0 810 809.999993" height="1080" preserveAspectRatio="xMidYMid meet" version="1.2"><g id="7739b6f25a"><rect x="0" width="810" y="0" height="809.999993" style="fill:#ffffff;fill-opacity:1;stroke:none;"/><rect x="0" width="810" y="0" height="809.999993" style="fill:#ffffff;fill-opacity:1;stroke:none;"/><path style=" stroke:none;fill-rule:nonzero;fill:#004aad;fill-opacity:1;" d="M 448.53125 278.859375 L 425.050781 278.859375 L 425.050781 452.472656 C 425.050781 483.027344 400.1875 507.886719 369.632812 507.886719 C 339.0625 507.886719 314.195312 483.027344 314.195312 452.472656 C 314.195312 421.914062 339.066406 397.058594 369.632812 397.058594 L 381.257812 397.058594 L 381.257812 373.800781 L 369.632812 373.800781 C 326.242188 373.800781 290.941406 409.089844 290.941406 452.472656 C 290.941406 495.851562 326.242188 531.140625 369.632812 531.140625 C 413.011719 531.140625 448.304688 495.851562 448.304688 452.472656 L 448.304688 342.550781 C 448.304688 340.550781 449.445312 338.730469 451.25 337.855469 C 453.039062 336.976562 455.183594 337.199219 456.757812 338.4375 C 471.441406 349.941406 488.964844 356.019531 507.441406 356.019531 L 519.070312 356.019531 L 519.070312 332.765625 L 507.441406 332.765625 C 476.589844 332.765625 451.1875 309.023438 448.53125 278.859375 Z M 448.53125 278.859375 "/><path style=" stroke:none;fill-rule:nonzero;fill:#004aad;fill-opacity:1;" d="M 535.644531 243 L 274.355469 243 C 257.0625 243 243 257.0625 243 274.355469 L 243 535.644531 C 243 552.9375 257.0625 567 274.355469 567 L 535.644531 567 C 552.9375 567 567 552.9375 567 535.644531 L 567 274.355469 C 567 257.0625 552.9375 243 535.644531 243 Z M 529.511719 361.246094 C 529.511719 364.128906 527.175781 366.46875 524.285156 366.46875 L 507.429688 366.46875 C 490.035156 366.46875 473.394531 361.699219 458.753906 352.585938 L 458.753906 452.472656 C 458.753906 501.613281 418.773438 541.59375 369.625 541.59375 C 320.476562 541.59375 280.484375 501.613281 280.484375 452.472656 C 280.484375 403.332031 320.472656 363.351562 369.625 363.351562 L 386.480469 363.351562 C 389.371094 363.351562 391.707031 365.691406 391.707031 368.574219 L 391.707031 402.28125 C 391.707031 405.167969 389.371094 407.507812 386.480469 407.507812 L 369.625 407.507812 C 344.820312 407.507812 324.644531 427.675781 324.644531 452.472656 C 324.644531 477.269531 344.820312 497.433594 369.625 497.433594 C 394.421875 497.433594 414.59375 477.261719 414.59375 452.472656 L 414.59375 273.632812 C 414.59375 270.75 416.929688 268.40625 419.820312 268.40625 L 453.523438 268.40625 C 456.410156 268.40625 458.746094 270.75 458.746094 273.632812 C 458.746094 300.480469 480.585938 322.3125 507.425781 322.3125 L 524.277344 322.3125 C 527.167969 322.3125 529.503906 324.652344 529.503906 327.539062 L 529.503906 361.246094 Z M 529.511719 361.246094 "/></g></svg>