<svg xmlns="http://www.w3.org/2000/svg" xmlns:xlink="http://www.w3.org/1999/xlink" width="1080" zoomAndPan="magnify" viewBox="0 0 810 809.999993" height="1080" preserveAspectRatio="xMidYMid meet" version="1.2"><defs><clipPath id="27b4a43e22"><path d="M 244 243 L 566.65625 243 L 566.65625 566 L 244 566 Z M 244 243 "/></clipPath></defs><g id="b4bc825c2f"><rect x="0" width="810" y="0" height="809.999993" style="fill:#ffffff;fill-opacity:1;stroke:none;"/><rect x="0" width="810" y="0" height="809.999993" style="fill:#ffffff;fill-opacity:1;stroke:none;"/><g clip-rule="nonzero" clip-path="url(#27b4a43e22)"><path style=" stroke:none;fill-rule:nonzero;fill:#004aad;fill-opacity:1;" d="M 404.882812 243.296875 C 315.144531 243.597656 243.421875 316.5625 244.59375 406.292969 C 244.648438 410.800781 244.890625 415.300781 245.324219 419.785156 C 245.757812 424.273438 246.378906 428.734375 247.1875 433.171875 C 247.996094 437.605469 248.992188 442 250.171875 446.351562 C 251.355469 450.703125 252.714844 454.996094 254.257812 459.230469 C 255.800781 463.46875 257.523438 467.632812 259.417969 471.722656 C 261.3125 475.8125 263.375 479.816406 265.609375 483.734375 C 267.839844 487.652344 270.234375 491.464844 272.789062 495.179688 C 275.347656 498.894531 278.054688 502.496094 280.914062 505.980469 C 281.363281 506.53125 281.769531 507.113281 282.128906 507.722656 C 282.492188 508.335938 282.808594 508.96875 283.074219 509.625 C 283.34375 510.285156 283.558594 510.960938 283.726562 511.648438 C 283.890625 512.339844 284.007812 513.039062 284.066406 513.746094 C 284.128906 514.457031 284.140625 515.164062 284.09375 515.871094 C 284.050781 516.582031 283.953125 517.285156 283.804688 517.976562 C 283.65625 518.671875 283.457031 519.351562 283.207031 520.015625 C 282.953125 520.683594 282.65625 521.324219 282.308594 521.945312 L 268.453125 546.773438 C 264.609375 553.660156 270.871094 561.796875 278.511719 559.851562 L 325.441406 547.902344 C 327.078125 547.488281 328.734375 547.367188 330.417969 547.539062 C 332.097656 547.710938 333.695312 548.167969 335.214844 548.90625 C 345.589844 553.949219 356.386719 557.824219 367.601562 560.53125 C 378.820312 563.238281 390.195312 564.714844 401.726562 564.960938 C 491.953125 567.003906 566.007812 494.910156 566.289062 404.664062 C 566.566406 315.40625 494.144531 242.996094 404.882812 243.296875 Z M 405.433594 545.183594 C 403.128906 545.183594 400.820312 545.125 398.515625 545.011719 C 396.210938 544.898438 393.910156 544.730469 391.613281 544.503906 C 389.316406 544.277344 387.023438 543.996094 384.742188 543.65625 C 382.457031 543.316406 380.183594 542.921875 377.921875 542.472656 C 375.65625 542.023438 373.40625 541.519531 371.167969 540.957031 C 368.929688 540.394531 366.703125 539.78125 364.496094 539.109375 C 362.285156 538.441406 360.097656 537.71875 357.921875 536.9375 C 355.75 536.160156 353.597656 535.332031 351.464844 534.449219 C 349.332031 533.566406 347.222656 532.628906 345.136719 531.644531 C 343.050781 530.65625 340.988281 529.617188 338.953125 528.53125 C 336.917969 527.441406 334.910156 526.304688 332.929688 525.117188 C 330.949219 523.933594 329 522.699219 327.082031 521.414062 C 325.160156 520.132812 323.277344 518.804688 321.421875 517.429688 C 319.566406 516.054688 317.75 514.636719 315.964844 513.171875 C 314.179688 511.707031 312.433594 510.199219 310.722656 508.648438 C 309.011719 507.097656 307.339844 505.507812 305.710938 503.875 C 304.078125 502.242188 302.484375 500.574219 300.9375 498.863281 C 299.386719 497.152344 297.878906 495.40625 296.414062 493.621094 C 294.949219 491.835938 293.53125 490.019531 292.15625 488.164062 C 290.78125 486.308594 289.453125 484.421875 288.171875 482.503906 C 286.886719 480.585938 285.652344 478.636719 284.464844 476.65625 C 283.28125 474.675781 282.140625 472.667969 281.054688 470.632812 C 279.964844 468.597656 278.929688 466.535156 277.941406 464.449219 C 276.957031 462.363281 276.019531 460.253906 275.136719 458.121094 C 274.253906 455.988281 273.421875 453.835938 272.644531 451.664062 C 271.867188 449.488281 271.144531 447.296875 270.472656 445.089844 C 269.804688 442.878906 269.1875 440.65625 268.628906 438.417969 C 268.066406 436.179688 267.5625 433.925781 267.109375 431.664062 C 266.660156 429.398438 266.265625 427.125 265.929688 424.84375 C 265.589844 422.558594 265.308594 420.269531 265.082031 417.972656 C 264.855469 415.675781 264.683594 413.375 264.570312 411.070312 C 264.457031 408.765625 264.402344 406.457031 264.402344 404.148438 C 264.402344 326.257812 327.546875 263.113281 405.433594 263.113281 C 483.023438 263.113281 545.976562 325.769531 546.464844 403.242188 C 546.957031 480.976562 483.171875 545.183594 405.433594 545.183594 Z M 405.433594 545.183594 "/></g><path style=" stroke:none;fill-rule:nonzero;fill:#004aad;fill-opacity:1;" d="M 380.230469 335.582031 L 380.292969 335.710938 L 388.707031 352.394531 C 389.15625 353.292969 389.535156 354.21875 389.839844 355.179688 C 390.140625 356.136719 390.363281 357.113281 390.507812 358.105469 C 390.65625 359.101562 390.71875 360.101562 390.703125 361.105469 C 390.6875 362.109375 390.589844 363.105469 390.414062 364.09375 C 390.238281 365.085938 389.980469 366.054688 389.648438 367 C 389.316406 367.949219 388.90625 368.863281 388.425781 369.746094 C 387.945312 370.628906 387.398438 371.464844 386.78125 372.261719 C 386.164062 373.054688 385.488281 373.792969 384.753906 374.476562 C 384.019531 375.15625 383.347656 375.890625 382.734375 376.679688 C 382.121094 377.464844 381.570312 378.296875 381.089844 379.175781 C 380.609375 380.050781 380.203125 380.957031 379.867188 381.898438 C 379.535156 382.839844 379.277344 383.800781 379.097656 384.785156 C 378.917969 385.769531 378.816406 386.757812 378.796875 387.757812 C 378.773438 388.753906 378.832031 389.75 378.972656 390.738281 C 379.113281 391.726562 379.328125 392.699219 379.625 393.652344 C 379.917969 394.609375 380.289062 395.53125 380.734375 396.429688 C 385.78125 406.566406 394.53125 420.542969 407.882812 430.628906 C 408.625 431.195312 409.40625 431.699219 410.226562 432.148438 C 411.046875 432.597656 411.894531 432.980469 412.773438 433.300781 C 413.648438 433.621094 414.546875 433.875 415.460938 434.0625 C 416.375 434.25 417.300781 434.367188 418.234375 434.417969 C 419.164062 434.464844 420.097656 434.445312 421.027344 434.355469 C 421.957031 434.265625 422.875 434.105469 423.78125 433.878906 C 424.6875 433.648438 425.570312 433.355469 426.433594 432.996094 C 427.292969 432.636719 428.125 432.214844 428.921875 431.730469 L 434.339844 428.433594 C 435.554688 427.695312 436.835938 427.101562 438.1875 426.65625 C 439.539062 426.207031 440.921875 425.917969 442.335938 425.789062 C 443.753906 425.660156 445.167969 425.6875 446.574219 425.882812 C 447.984375 426.074219 449.355469 426.421875 450.683594 426.925781 L 472.214844 435.113281 C 472.785156 435.332031 473.347656 435.574219 473.894531 435.847656 C 474.441406 436.121094 474.976562 436.417969 475.492188 436.746094 C 476.011719 437.070312 476.515625 437.417969 476.996094 437.792969 C 477.480469 438.167969 477.945312 438.5625 478.390625 438.984375 C 478.835938 439.402344 479.261719 439.84375 479.664062 440.304688 C 480.0625 440.765625 480.441406 441.246094 480.796875 441.746094 C 481.152344 442.242188 481.480469 442.757812 481.785156 443.289062 C 482.089844 443.820312 482.367188 444.363281 482.617188 444.921875 C 482.867188 445.480469 483.089844 446.050781 483.285156 446.628906 C 483.480469 447.210938 483.644531 447.796875 483.78125 448.394531 C 483.921875 448.992188 484.027344 449.59375 484.105469 450.199219 C 484.183594 450.804688 484.230469 451.414062 484.25 452.027344 C 484.265625 452.636719 484.253906 453.25 484.210938 453.859375 C 484.171875 454.46875 484.097656 455.078125 483.996094 455.679688 C 483.894531 456.28125 483.765625 456.878906 483.605469 457.46875 C 483.445312 458.0625 483.253906 458.640625 483.039062 459.214844 C 482.785156 459.871094 482.5 460.511719 482.175781 461.140625 L 476.210938 472.703125 C 475.726562 473.640625 475.167969 474.527344 474.535156 475.367188 C 473.902344 476.210938 473.203125 476.992188 472.4375 477.714844 C 471.671875 478.4375 470.851562 479.089844 469.976562 479.675781 C 469.101562 480.257812 468.183594 480.765625 467.222656 481.195312 C 466.261719 481.625 465.269531 481.96875 464.25 482.230469 C 463.230469 482.492188 462.195312 482.667969 461.148438 482.753906 C 460.097656 482.839844 459.050781 482.839844 458 482.75 C 456.953125 482.660156 455.917969 482.480469 454.898438 482.21875 C 421.082031 473.46875 340.484375 443.054688 333.992188 351.09375 C 333.929688 350.183594 333.929688 349.277344 334 348.371094 C 334.066406 347.460938 334.199219 346.566406 334.398438 345.675781 C 334.597656 344.789062 334.863281 343.921875 335.1875 343.070312 C 335.515625 342.222656 335.902344 341.398438 336.347656 340.605469 C 336.792969 339.8125 337.292969 339.058594 337.851562 338.335938 C 338.410156 337.617188 339.015625 336.941406 339.667969 336.3125 C 340.324219 335.679688 341.023438 335.097656 341.761719 334.570312 C 342.503906 334.039062 343.277344 333.566406 344.085938 333.152344 L 355.070312 327.511719 C 355.613281 327.230469 356.171875 326.976562 356.738281 326.753906 C 357.308594 326.527344 357.886719 326.332031 358.476562 326.164062 C 359.0625 325.996094 359.660156 325.855469 360.261719 325.746094 C 360.863281 325.636719 361.46875 325.554688 362.078125 325.503906 C 362.6875 325.457031 363.300781 325.433594 363.910156 325.445312 C 364.523438 325.453125 365.132812 325.496094 365.742188 325.5625 C 366.347656 325.632812 366.953125 325.734375 367.550781 325.863281 C 368.148438 325.992188 368.738281 326.148438 369.320312 326.335938 C 369.902344 326.523438 370.476562 326.738281 371.039062 326.980469 C 371.597656 327.222656 372.148438 327.492188 372.683594 327.792969 C 373.21875 328.089844 373.734375 328.410156 374.238281 328.757812 C 374.742188 329.105469 375.226562 329.480469 375.695312 329.875 C 376.160156 330.269531 376.609375 330.6875 377.035156 331.128906 C 377.460938 331.566406 377.863281 332.027344 378.242188 332.503906 C 378.625 332.984375 378.980469 333.480469 379.3125 333.996094 C 379.644531 334.507812 379.949219 335.039062 380.230469 335.582031 Z M 380.230469 335.582031 "/></g></svg>