<svg xmlns="http://www.w3.org/2000/svg" xmlns:xlink="http://www.w3.org/1999/xlink" width="1080" zoomAndPan="magnify" viewBox="0 0 810 809.999993" height="1080" preserveAspectRatio="xMidYMid meet" version="1.2"><defs><clipPath id="823a8c416d"><path d="M 243 243 L 567 243 L 567 567 L 243 567 Z M 243 243 "/></clipPath></defs><g id="2bcf2e3260"><rect x="0" width="810" y="0" height="809.999993" style="fill:#ffffff;fill-opacity:1;stroke:none;"/><rect x="0" width="810" y="0" height="809.999993" style="fill:#ffffff;fill-opacity:1;stroke:none;"/><path style=" stroke:none;fill-rule:nonzero;fill:#004aad;fill-opacity:1;" d="M 442.648438 401.914062 L 385.371094 367.65625 C 380.730469 364.878906 374.816406 368.222656 374.816406 373.636719 L 374.816406 442.152344 C 374.816406 447.566406 380.730469 450.933594 385.371094 448.132812 L 442.648438 413.878906 C 447.175781 411.171875 447.175781 404.621094 442.648438 401.914062 Z M 442.648438 401.914062 "/><g clip-rule="nonzero" clip-path="url(#823a8c416d)"><path style=" stroke:none;fill-rule:nonzero;fill:#004aad;fill-opacity:1;" d="M 497.765625 243 L 312.246094 243 C 274.003906 243 243 274 243 312.246094 L 243 497.765625 C 243 536.007812 274.003906 567.007812 312.246094 567.007812 L 497.765625 567.007812 C 536.007812 567.007812 567.007812 536.007812 567.007812 497.765625 L 567.007812 312.246094 C 567.007812 274 536.007812 243 497.765625 243 Z M 509.683594 444.925781 C 509.683594 467.605469 491.28125 486.007812 468.601562 486.007812 L 342.402344 486.007812 C 319.722656 486.007812 301.320312 467.605469 301.320312 444.925781 L 301.320312 370.886719 C 301.320312 348.183594 319.722656 329.78125 342.402344 329.78125 L 468.601562 329.78125 C 491.28125 329.78125 509.683594 348.183594 509.683594 370.886719 Z M 509.683594 444.925781 "/></g></g></svg>