<svg xmlns="http://www.w3.org/2000/svg" xmlns:xlink="http://www.w3.org/1999/xlink" width="500" zoomAndPan="magnify" viewBox="0 0 375 374.999991" height="500" preserveAspectRatio="xMidYMid meet" version="1.2"><defs><clipPath id="8fa379394a"><path d="M 24.101562 24.101562 L 351 24.101562 L 351 351 L 24.101562 351 Z M 24.101562 24.101562 "/></clipPath></defs><g id="abbaac1e53"><g style="fill:#004aad;fill-opacity:1;"><g transform="translate(79.76158, 278.29486)"><path style="stroke:none" d="M 152.046875 -95.5 L 143.421875 -109.75 L 143.421875 -198.421875 L 152.046875 -198.421875 Z M 169.3125 -67.21875 L 160.671875 -81.71875 L 160.671875 -198.421875 L 169.3125 -198.421875 Z M 186.5625 -38.578125 L 177.9375 -53.203125 L 177.9375 -198.421875 L 186.5625 -198.421875 Z M 62.90625 -102.921875 L 71.53125 -88.671875 L 71.53125 0 L 62.90625 0 Z M 45.65625 -131.203125 L 54.28125 -116.703125 L 54.28125 0 L 45.65625 0 Z M 28.390625 -159.84375 L 37.03125 -145.21875 L 37.03125 0 L 28.390625 0 Z M 31.390625 -198.421875 L 41.453125 -198.421875 L 163.4375 0 L 153.375 0 Z M 51.765625 -198.421875 L 61.953125 -198.421875 L 183.796875 0 L 173.5 0 Z M 72.015625 -198.421875 L 82.078125 -198.421875 L 195.1875 -14.015625 L 195.1875 -198.421875 L 203.8125 -198.421875 L 203.8125 0 C 203.8125 0 200.414062 0 193.625 0 Z M 19.765625 -184.40625 L 19.765625 0 L 11.140625 0 L 11.140625 -198.421875 C 11.140625 -198.421875 14.578125 -198.421875 21.453125 -198.421875 L 143.0625 0 L 133.125 0 Z M 19.765625 -184.40625 "/></g></g><g clip-rule="nonzero" clip-path="url(#8fa379394a)"><path style=" stroke:none;fill-rule:nonzero;fill:#004aad;fill-opacity:1;" d="M 187.496094 24.101562 C 97.34375 24.101562 24.101562 97.34375 24.101562 187.496094 C 24.101562 277.644531 97.34375 350.890625 187.496094 350.890625 C 277.644531 350.890625 350.890625 277.644531 350.890625 187.496094 C 350.890625 97.34375 277.644531 24.101562 187.496094 24.101562 Z M 187.496094 31.203125 C 273.902344 31.203125 343.785156 101.085938 343.785156 187.496094 C 343.785156 273.902344 273.902344 343.785156 187.496094 343.785156 C 101.085938 343.785156 31.203125 273.902344 31.203125 187.496094 C 31.203125 101.085938 101.085938 31.203125 187.496094 31.203125 Z M 187.496094 31.203125 "/></g></g></svg>