<svg xmlns="http://www.w3.org/2000/svg" xmlns:xlink="http://www.w3.org/1999/xlink" width="500" zoomAndPan="magnify" viewBox="0 0 375 374.999991" height="500" preserveAspectRatio="xMidYMid meet" version="1.2"><defs/><g id="96c0a8c3f4"><rect x="0" width="375" y="0" height="374.999991" style="fill:#ffffff;fill-opacity:1;stroke:none;"/><rect x="0" width="375" y="0" height="374.999991" style="fill:#ffffff;fill-opacity:1;stroke:none;"/><g style="fill:#004aad;fill-opacity:1;"><g transform="translate(15.147555, 249.762748)"><path style="stroke:none" d="M 104.265625 -65.484375 L 98.359375 -75.265625 L 98.359375 -136.078125 L 104.265625 -136.078125 Z M 116.109375 -46.09375 L 110.1875 -56.03125 L 110.1875 -136.078125 L 116.109375 -136.078125 Z M 127.9375 -26.453125 L 122.015625 -36.484375 L 122.015625 -136.078125 L 127.9375 -136.078125 Z M 43.140625 -70.578125 L 49.046875 -60.8125 L 49.046875 0 L 43.140625 0 Z M 31.3125 -89.96875 L 37.21875 -80.03125 L 37.21875 0 L 31.3125 0 Z M 19.46875 -109.609375 L 25.390625 -99.59375 L 25.390625 0 L 19.46875 0 Z M 21.53125 -136.078125 L 28.4375 -136.078125 L 112.078125 0 L 105.171875 0 Z M 35.5 -136.078125 L 42.484375 -136.078125 L 126.046875 0 L 118.984375 0 Z M 49.390625 -136.078125 L 56.28125 -136.078125 L 133.859375 -9.609375 L 133.859375 -136.078125 L 139.765625 -136.078125 L 139.765625 0 C 139.765625 0 137.4375 0 132.78125 0 Z M 13.5625 -126.453125 L 13.5625 0 L 7.640625 0 L 7.640625 -136.078125 C 7.640625 -136.078125 9.992188 -136.078125 14.703125 -136.078125 L 98.109375 0 L 91.296875 0 Z M 13.5625 -126.453125 "/></g></g><g style="fill:#004aad;fill-opacity:1;"><g transform="translate(163.009021, 181.016072)"><path style="stroke:none" d="M 20.546875 0 L 10.0625 -12.125 L 10.0625 0 L 2.6875 0 L 2.6875 -24.984375 L 9.703125 -24.984375 L 20.1875 -12.671875 L 20.1875 -24.984375 L 27.5625 -24.984375 L 27.5625 0 Z M 20.546875 0 "/></g></g><g style="fill:#004aad;fill-opacity:1;"><g transform="translate(193.255181, 181.016072)"><path style="stroke:none" d="M 12.09375 -19.609375 C 15.457031 -19.609375 18.097656 -18.753906 20.015625 -17.046875 C 21.941406 -15.335938 22.90625 -12.851562 22.90625 -9.59375 C 22.90625 -6.320312 21.941406 -3.832031 20.015625 -2.125 C 18.097656 -0.414062 15.457031 0.4375 12.09375 0.4375 C 8.726562 0.4375 6.085938 -0.40625 4.171875 -2.09375 C 2.265625 -3.789062 1.3125 -6.289062 1.3125 -9.59375 C 1.3125 -12.882812 2.265625 -15.375 4.171875 -17.0625 C 6.085938 -18.757812 8.726562 -19.609375 12.09375 -19.609375 Z M 12.09375 -14.703125 C 9.71875 -14.703125 8.53125 -13.335938 8.53125 -10.609375 L 8.53125 -8.53125 C 8.53125 -5.820312 9.71875 -4.46875 12.09375 -4.46875 C 14.488281 -4.46875 15.6875 -5.820312 15.6875 -8.53125 L 15.6875 -10.609375 C 15.6875 -13.335938 14.488281 -14.703125 12.09375 -14.703125 Z M 12.09375 -14.703125 "/></g></g><g style="fill:#004aad;fill-opacity:1;"><g transform="translate(217.473891, 181.016072)"><path style="stroke:none" d="M 9.4375 -17.390625 C 10.820312 -18.867188 12.613281 -19.609375 14.8125 -19.609375 C 17.40625 -19.609375 19.398438 -18.765625 20.796875 -17.078125 C 22.203125 -15.398438 22.90625 -12.914062 22.90625 -9.625 C 22.90625 -6.300781 22.203125 -3.789062 20.796875 -2.09375 C 19.398438 -0.40625 17.40625 0.4375 14.8125 0.4375 C 12.15625 0.4375 10.125 -0.613281 8.71875 -2.71875 L 8.09375 0 L 2.21875 0 L 2.21875 -26.328125 L 9.4375 -26.328125 Z M 12.5625 -14.265625 C 11.5 -14.265625 10.703125 -13.882812 10.171875 -13.125 C 9.640625 -12.363281 9.375 -11.378906 9.375 -10.171875 L 9.375 -8.96875 C 9.375 -7.757812 9.640625 -6.78125 10.171875 -6.03125 C 10.703125 -5.28125 11.5 -4.90625 12.5625 -4.90625 C 14.644531 -4.90625 15.6875 -6.140625 15.6875 -8.609375 L 15.6875 -10.53125 C 15.6875 -13.019531 14.644531 -14.265625 12.5625 -14.265625 Z M 12.5625 -14.265625 "/></g></g><g style="fill:#004aad;fill-opacity:1;"><g transform="translate(241.692601, 181.016072)"><path style="stroke:none" d="M 13.828125 -19.640625 C 14.390625 -19.640625 14.890625 -19.570312 15.328125 -19.4375 C 15.765625 -19.3125 15.984375 -19.234375 15.984375 -19.203125 L 15.984375 -13.140625 L 13.65625 -13.140625 C 12.15625 -13.140625 11.070312 -12.753906 10.40625 -11.984375 C 9.738281 -11.210938 9.40625 -10.0625 9.40625 -8.53125 L 9.40625 0 L 2.171875 0 L 2.171875 -19.171875 L 8.09375 -19.171875 L 8.5625 -16.265625 C 9 -17.378906 9.691406 -18.21875 10.640625 -18.78125 C 11.585938 -19.351562 12.648438 -19.640625 13.828125 -19.640625 Z M 13.828125 -19.640625 "/></g></g><g style="fill:#004aad;fill-opacity:1;"><g transform="translate(257.814204, 181.016072)"><path style="stroke:none" d="M 12.09375 -19.609375 C 15.601562 -19.609375 18.28125 -18.785156 20.125 -17.140625 C 21.976562 -15.492188 22.90625 -12.976562 22.90625 -9.59375 L 22.90625 -8.359375 L 8.53125 -8.359375 C 8.53125 -6.972656 8.835938 -5.925781 9.453125 -5.21875 C 10.078125 -4.519531 11.050781 -4.171875 12.375 -4.171875 C 13.59375 -4.171875 14.484375 -4.425781 15.046875 -4.9375 C 15.617188 -5.445312 15.90625 -6.125 15.90625 -6.96875 L 22.90625 -6.96875 C 22.90625 -4.644531 22.019531 -2.828125 20.25 -1.515625 C 18.488281 -0.210938 15.914062 0.4375 12.53125 0.4375 C 8.96875 0.4375 6.207031 -0.390625 4.25 -2.046875 C 2.289062 -3.710938 1.3125 -6.226562 1.3125 -9.59375 C 1.3125 -12.882812 2.265625 -15.375 4.171875 -17.0625 C 6.085938 -18.757812 8.726562 -19.609375 12.09375 -19.609375 Z M 12.375 -15 C 10.101562 -15 8.832031 -13.921875 8.5625 -11.765625 L 15.609375 -11.765625 C 15.609375 -12.753906 15.320312 -13.539062 14.75 -14.125 C 14.1875 -14.707031 13.394531 -15 12.375 -15 Z M 12.375 -15 "/></g></g><g style="fill:#004aad;fill-opacity:1;"><g transform="translate(282.032913, 181.016072)"><path style="stroke:none" d="M 23.75 -22.765625 C 23.75 -21.285156 23.378906 -20.144531 22.640625 -19.34375 C 21.898438 -18.550781 20.789062 -17.960938 19.3125 -17.578125 C 20.019531 -17.046875 20.570312 -16.421875 20.96875 -15.703125 C 21.363281 -14.992188 21.5625 -14.238281 21.5625 -13.4375 C 21.5625 -11.40625 20.789062 -9.867188 19.25 -8.828125 C 17.71875 -7.785156 15.804688 -7.265625 13.515625 -7.265625 L 10.75 -7.265625 C 9.21875 -7.265625 8.453125 -6.910156 8.453125 -6.203125 C 8.453125 -5.867188 8.625 -5.597656 8.96875 -5.390625 C 9.3125 -5.179688 9.90625 -5.078125 10.75 -5.078125 L 17.28125 -5.078125 C 19.414062 -5.078125 21.023438 -4.519531 22.109375 -3.40625 C 23.203125 -2.300781 23.75 -0.816406 23.75 1.046875 C 23.75 2.429688 23.382812 3.617188 22.65625 4.609375 C 21.925781 5.597656 20.941406 6.347656 19.703125 6.859375 C 18.472656 7.367188 17.132812 7.625 15.6875 7.625 L 5.015625 7.625 C 4.140625 7.625 3.332031 7.414062 2.59375 7 C 1.851562 6.59375 1.265625 6.03125 0.828125 5.3125 C 0.398438 4.601562 0.1875 3.8125 0.1875 2.9375 C 0.1875 2 0.472656 1.144531 1.046875 0.375 C 1.628906 -0.382812 2.359375 -0.957031 3.234375 -1.34375 C 2.648438 -1.75 2.1875 -2.242188 1.84375 -2.828125 C 1.507812 -3.410156 1.34375 -4.039062 1.34375 -4.71875 C 1.34375 -5.664062 1.691406 -6.519531 2.390625 -7.28125 C 3.097656 -8.039062 3.972656 -8.554688 5.015625 -8.828125 C 4.066406 -9.429688 3.3125 -10.125 2.75 -10.90625 C 2.195312 -11.695312 1.921875 -12.53125 1.921875 -13.40625 C 1.921875 -15.625 2.820312 -17.210938 4.625 -18.171875 C 6.425781 -19.128906 8.816406 -19.609375 11.796875 -19.609375 C 13.109375 -19.609375 14.160156 -19.535156 14.953125 -19.390625 C 16.140625 -20.140625 16.910156 -20.820312 17.265625 -21.4375 C 17.617188 -22.0625 17.796875 -22.503906 17.796875 -22.765625 Z M 11.734375 -15.828125 C 10.929688 -15.828125 10.273438 -15.617188 9.765625 -15.203125 C 9.253906 -14.796875 9 -14.207031 9 -13.4375 C 9 -12.632812 9.234375 -12.03125 9.703125 -11.625 C 10.179688 -11.226562 10.859375 -11.03125 11.734375 -11.03125 C 12.597656 -11.03125 13.28125 -11.226562 13.78125 -11.625 C 14.28125 -12.03125 14.53125 -12.632812 14.53125 -13.4375 C 14.53125 -14.238281 14.28125 -14.835938 13.78125 -15.234375 C 13.28125 -15.628906 12.597656 -15.828125 11.734375 -15.828125 Z M 8.9375 0 C 8.375 0 7.914062 0.148438 7.5625 0.453125 C 7.21875 0.753906 7.046875 1.1875 7.046875 1.75 C 7.046875 2.300781 7.226562 2.742188 7.59375 3.078125 C 7.957031 3.421875 8.40625 3.59375 8.9375 3.59375 L 14.59375 3.59375 C 15.125 3.59375 15.578125 3.425781 15.953125 3.09375 C 16.328125 2.769531 16.515625 2.332031 16.515625 1.78125 C 16.515625 1.21875 16.332031 0.78125 15.96875 0.46875 C 15.613281 0.15625 15.15625 0 14.59375 0 Z M 8.9375 0 "/></g></g><g style="fill:#004aad;fill-opacity:1;"><g transform="translate(306.251623, 181.016072)"><path style="stroke:none" d="M 11.65625 -19.609375 C 14.582031 -19.609375 16.960938 -19.117188 18.796875 -18.140625 C 20.640625 -17.160156 21.5625 -15.566406 21.5625 -13.359375 L 21.5625 -5.875 C 21.5625 -5.46875 21.660156 -5.128906 21.859375 -4.859375 C 22.054688 -4.597656 22.347656 -4.46875 22.734375 -4.46875 L 24.03125 -4.46875 L 24.03125 -0.296875 C 23.96875 -0.242188 23.78125 -0.160156 23.46875 -0.046875 C 23.164062 0.0546875 22.738281 0.160156 22.1875 0.265625 C 21.632812 0.378906 20.992188 0.4375 20.265625 0.4375 C 18.859375 0.4375 17.703125 0.226562 16.796875 -0.1875 C 15.890625 -0.613281 15.265625 -1.203125 14.921875 -1.953125 C 14.003906 -1.234375 12.972656 -0.65625 11.828125 -0.21875 C 10.691406 0.21875 9.363281 0.4375 7.84375 0.4375 C 3.34375 0.4375 1.09375 -1.351562 1.09375 -4.9375 C 1.09375 -6.800781 1.59375 -8.222656 2.59375 -9.203125 C 3.601562 -10.179688 5.050781 -10.851562 6.9375 -11.21875 C 8.820312 -11.582031 11.289062 -11.765625 14.34375 -11.765625 L 14.34375 -12.703125 C 14.34375 -13.453125 14.082031 -14.019531 13.5625 -14.40625 C 13.039062 -14.800781 12.367188 -15 11.546875 -15 C 10.796875 -15 10.144531 -14.863281 9.59375 -14.59375 C 9.050781 -14.332031 8.78125 -13.910156 8.78125 -13.328125 L 8.78125 -13.1875 L 1.671875 -13.1875 C 1.648438 -13.300781 1.640625 -13.46875 1.640625 -13.6875 C 1.640625 -15.5 2.503906 -16.9375 4.234375 -18 C 5.960938 -19.070312 8.4375 -19.609375 11.65625 -19.609375 Z M 14.34375 -8.359375 C 12.28125 -8.359375 10.757812 -8.132812 9.78125 -7.6875 C 8.800781 -7.238281 8.3125 -6.632812 8.3125 -5.875 C 8.3125 -4.664062 9.132812 -4.0625 10.78125 -4.0625 C 11.726562 -4.0625 12.554688 -4.316406 13.265625 -4.828125 C 13.984375 -5.335938 14.34375 -5.96875 14.34375 -6.71875 Z M 14.34375 -8.359375 "/></g></g><g style="fill:#004aad;fill-opacity:1;"><g transform="translate(163.009021, 217.974383)"><path style="stroke:none" d="M 24.140625 0 L 24.140625 -9 C 24.140625 -10.113281 24.179688 -11.257812 24.265625 -12.4375 C 24.359375 -13.613281 24.453125 -14.597656 24.546875 -15.390625 C 24.640625 -16.191406 24.703125 -16.703125 24.734375 -16.921875 L 24.578125 -16.921875 L 19.96875 0 L 13.6875 0 L 9.046875 -16.890625 L 8.890625 -16.890625 C 8.921875 -16.671875 8.988281 -16.164062 9.09375 -15.375 C 9.207031 -14.59375 9.3125 -13.613281 9.40625 -12.4375 C 9.5 -11.257812 9.546875 -10.113281 9.546875 -9 L 9.546875 0 L 2.171875 0 L 2.171875 -24.984375 L 13.515625 -24.984375 L 17.28125 -10.5625 L 17.4375 -10.5625 L 21.171875 -24.984375 L 32.09375 -24.984375 L 32.09375 0 Z M 24.140625 0 "/></g></g><g style="fill:#004aad;fill-opacity:1;"><g transform="translate(197.285584, 217.974383)"><path style="stroke:none" d="M 12.09375 -19.609375 C 15.601562 -19.609375 18.28125 -18.785156 20.125 -17.140625 C 21.976562 -15.492188 22.90625 -12.976562 22.90625 -9.59375 L 22.90625 -8.359375 L 8.53125 -8.359375 C 8.53125 -6.972656 8.835938 -5.925781 9.453125 -5.21875 C 10.078125 -4.519531 11.050781 -4.171875 12.375 -4.171875 C 13.59375 -4.171875 14.484375 -4.425781 15.046875 -4.9375 C 15.617188 -5.445312 15.90625 -6.125 15.90625 -6.96875 L 22.90625 -6.96875 C 22.90625 -4.644531 22.019531 -2.828125 20.25 -1.515625 C 18.488281 -0.210938 15.914062 0.4375 12.53125 0.4375 C 8.96875 0.4375 6.207031 -0.390625 4.25 -2.046875 C 2.289062 -3.710938 1.3125 -6.226562 1.3125 -9.59375 C 1.3125 -12.882812 2.265625 -15.375 4.171875 -17.0625 C 6.085938 -18.757812 8.726562 -19.609375 12.09375 -19.609375 Z M 12.375 -15 C 10.101562 -15 8.832031 -13.921875 8.5625 -11.765625 L 15.609375 -11.765625 C 15.609375 -12.753906 15.320312 -13.539062 14.75 -14.125 C 14.1875 -14.707031 13.394531 -15 12.375 -15 Z M 12.375 -15 "/></g></g><g style="fill:#004aad;fill-opacity:1;"><g transform="translate(221.504294, 217.974383)"><path style="stroke:none" d="M 16.125 0 L 15.5 -2.71875 C 14.101562 -0.613281 12.070312 0.4375 9.40625 0.4375 C 6.8125 0.4375 4.8125 -0.40625 3.40625 -2.09375 C 2.007812 -3.789062 1.3125 -6.300781 1.3125 -9.625 C 1.3125 -12.914062 2.007812 -15.398438 3.40625 -17.078125 C 4.8125 -18.765625 6.8125 -19.609375 9.40625 -19.609375 C 11.601562 -19.609375 13.394531 -18.867188 14.78125 -17.390625 L 14.78125 -26.328125 L 22 -26.328125 L 22 0 Z M 11.65625 -14.265625 C 9.570312 -14.265625 8.53125 -13.019531 8.53125 -10.53125 L 8.53125 -8.609375 C 8.53125 -6.140625 9.570312 -4.90625 11.65625 -4.90625 C 12.71875 -4.90625 13.515625 -5.28125 14.046875 -6.03125 C 14.585938 -6.78125 14.859375 -7.757812 14.859375 -8.96875 L 14.859375 -10.171875 C 14.859375 -11.378906 14.585938 -12.363281 14.046875 -13.125 C 13.515625 -13.882812 12.71875 -14.265625 11.65625 -14.265625 Z M 11.65625 -14.265625 "/></g></g><g style="fill:#004aad;fill-opacity:1;"><g transform="translate(245.723004, 217.974383)"><path style="stroke:none" d="M 14.953125 -19.171875 L 14.953125 -14.265625 L 10.890625 -14.265625 L 10.890625 -6.96875 C 10.890625 -6.101562 11.035156 -5.46875 11.328125 -5.0625 C 11.617188 -4.664062 12.148438 -4.46875 12.921875 -4.46875 L 14.953125 -4.46875 L 14.953125 -0.21875 C 14.378906 -0.0195312 13.628906 0.132812 12.703125 0.25 C 11.785156 0.375 10.988281 0.4375 10.3125 0.4375 C 8.1875 0.4375 6.546875 0.0507812 5.390625 -0.71875 C 4.242188 -1.5 3.671875 -2.820312 3.671875 -4.6875 L 3.671875 -14.265625 L 0.984375 -14.265625 L 0.984375 -19.171875 L 3.953125 -19.171875 L 5.515625 -24.984375 L 10.890625 -24.984375 L 10.890625 -19.171875 Z M 14.953125 -19.171875 "/></g></g><g style="fill:#004aad;fill-opacity:1;"><g transform="translate(261.844607, 217.974383)"><path style="stroke:none" d="M 12.09375 -19.609375 C 15.601562 -19.609375 18.28125 -18.785156 20.125 -17.140625 C 21.976562 -15.492188 22.90625 -12.976562 22.90625 -9.59375 L 22.90625 -8.359375 L 8.53125 -8.359375 C 8.53125 -6.972656 8.835938 -5.925781 9.453125 -5.21875 C 10.078125 -4.519531 11.050781 -4.171875 12.375 -4.171875 C 13.59375 -4.171875 14.484375 -4.425781 15.046875 -4.9375 C 15.617188 -5.445312 15.90625 -6.125 15.90625 -6.96875 L 22.90625 -6.96875 C 22.90625 -4.644531 22.019531 -2.828125 20.25 -1.515625 C 18.488281 -0.210938 15.914062 0.4375 12.53125 0.4375 C 8.96875 0.4375 6.207031 -0.390625 4.25 -2.046875 C 2.289062 -3.710938 1.3125 -6.226562 1.3125 -9.59375 C 1.3125 -12.882812 2.265625 -15.375 4.171875 -17.0625 C 6.085938 -18.757812 8.726562 -19.609375 12.09375 -19.609375 Z M 12.375 -15 C 10.101562 -15 8.832031 -13.921875 8.5625 -11.765625 L 15.609375 -11.765625 C 15.609375 -12.753906 15.320312 -13.539062 14.75 -14.125 C 14.1875 -14.707031 13.394531 -15 12.375 -15 Z M 12.375 -15 "/></g></g><g style="fill:#004aad;fill-opacity:1;"><g transform="translate(286.063316, 217.974383)"><path style="stroke:none" d="M 12.09375 -19.609375 C 15.238281 -19.609375 17.785156 -18.9375 19.734375 -17.59375 C 21.679688 -16.25 22.65625 -14.195312 22.65625 -11.4375 L 15.65625 -11.4375 C 15.65625 -13.613281 14.46875 -14.703125 12.09375 -14.703125 C 9.71875 -14.703125 8.53125 -13.335938 8.53125 -10.609375 L 8.53125 -8.53125 C 8.53125 -5.820312 9.765625 -4.46875 12.234375 -4.46875 C 14.703125 -4.46875 15.9375 -5.582031 15.9375 -7.8125 L 22.65625 -7.8125 C 22.65625 -5.019531 21.679688 -2.945312 19.734375 -1.59375 C 17.785156 -0.238281 15.238281 0.4375 12.09375 0.4375 C 8.726562 0.4375 6.085938 -0.40625 4.171875 -2.09375 C 2.265625 -3.789062 1.3125 -6.289062 1.3125 -9.59375 C 1.3125 -12.882812 2.265625 -15.375 4.171875 -17.0625 C 6.085938 -18.757812 8.726562 -19.609375 12.09375 -19.609375 Z M 12.09375 -19.609375 "/></g></g><g style="fill:#004aad;fill-opacity:1;"><g transform="translate(310.282026, 217.974383)"><path style="stroke:none" d="M 9.40625 -17.171875 C 10.175781 -17.953125 11.082031 -18.550781 12.125 -18.96875 C 13.164062 -19.394531 14.253906 -19.609375 15.390625 -19.609375 C 17.617188 -19.609375 19.289062 -18.988281 20.40625 -17.75 C 21.519531 -16.519531 22.078125 -14.742188 22.078125 -12.421875 L 22.078125 0 L 14.859375 0 L 14.859375 -11.546875 C 14.859375 -12.367188 14.644531 -13.023438 14.21875 -13.515625 C 13.789062 -14.015625 13.191406 -14.265625 12.421875 -14.265625 C 11.523438 -14.265625 10.796875 -13.972656 10.234375 -13.390625 C 9.679688 -12.816406 9.40625 -12.101562 9.40625 -11.25 L 9.40625 0 L 2.171875 0 L 2.171875 -26.328125 L 9.40625 -26.328125 Z M 9.40625 -17.171875 "/></g></g></g></svg>